<svg width="144" height="40" viewBox="0 0 144 40" fill="none" xmlns="http://www.w3.org/2000/svg">
<path d="M0.957143 29.0142C1.44286 27.1999 1.88571 25.6571 1.88571 22.5857V18.4571C1.88571 15.7571 1.32857 14.2142 0 12.6285V12.4857L7.78571 10.3428V22.5999C7.78571 25.6285 8.08571 27.2571 8.67143 29.0285V29.0999H0.957143V29.0142ZM4.28571 8.11423C3.43892 8.11423 2.6268 7.77784 2.02802 7.17906C1.42925 6.58029 1.09286 5.76817 1.09286 4.92137C1.09286 4.07457 1.42925 3.26246 2.02802 2.66368C2.6268 2.0649 3.43892 1.72852 4.28571 1.72852C6.05714 1.72852 7.52857 3.17137 7.52857 4.89994C7.52328 5.75575 7.17902 6.57457 6.57119 7.17704C5.96336 7.77951 5.14153 8.11651 4.28571 8.11423ZM31.7 26.0571C31.2891 26.3435 30.8008 26.4979 30.3 26.4999C29.1143 26.4999 28.7143 25.7285 28.7143 24.8428V15.6571C28.7143 12.5142 26.4286 10.5285 23.1714 10.5285C19.8857 10.5285 17.9714 12.4857 16.9714 14.0714L16.8286 14.0285V10.3285L9.18571 12.4714V12.5428C10.5143 14.1285 11.0286 15.6428 11.0286 18.4142L11.0714 22.5857C11.0714 25.6857 10.7429 27.2428 10.1429 29.0142V29.0857H17.8571V29.0142C17.2714 27.1999 16.9714 25.6571 16.9714 22.5857V15.0857C17.6714 14.0857 18.8571 13.2857 20.2143 13.2857C21.9857 13.2857 22.7571 14.4285 22.7571 16.0142V25.5428C22.7669 25.9545 22.8051 26.365 22.8714 26.7714C23.2 28.4285 24.5714 29.6142 26.8286 29.6142C29.9714 29.6142 31.2571 27.4428 31.7714 26.2142L31.7 26.0571ZM29.7286 32.5142C31.7286 32.6999 35.2286 32.7428 36.7857 30.1142L31.3857 16.7142C29.9143 13.1714 29.4 12.0999 28.5857 11.1714V11.0999H37.6286V11.1714C36.9714 12.0285 36.6714 14.4571 37.6714 16.9285L39.8857 22.6857L42.3143 16.8428C43.3857 14.1857 42.6857 12.0142 41.9429 11.1571V11.0857H46.6714V11.1571C45.4143 12.5285 44.5 13.6999 43.2429 16.7285L38.2571 28.6571C35.3 35.6428 33.1286 36.4142 29.7286 37.3714V32.5142ZM44.5 20.1142C44.5 14.9857 49 10.5142 54.4286 10.5142C59.8571 10.5142 64.3571 14.9857 64.3571 20.1142C64.3571 25.2428 59.8571 29.6428 54.4286 29.6428C49 29.6428 44.5 25.2428 44.5 20.1142ZM58.2429 20.1142C58.2429 14.8714 57.0571 11.2142 54.4429 11.2142C51.7857 11.2142 50.6429 14.8714 50.6429 20.1142C50.6429 25.3142 51.8286 28.9428 54.4429 28.9428C57.0571 28.9428 58.2286 25.3142 58.2429 20.1142ZM65.2857 16.7142C64.0286 13.4999 63.3286 12.2428 62.3714 11.1714V11.0999H71.5714V11.1714C70.9 12.0285 70.6857 14.3857 71.5714 16.6714L73.8286 22.5428L76.1429 16.9999C77.3286 14.2285 76.5143 11.9428 75.9286 11.1714V11.0999H80.5429V11.1714C79.2857 12.5428 78.4 13.6857 77.1143 16.7428L71.8286 29.3285H70.3857L65.2857 16.7142ZM88.1 26.7571C87.0714 28.2714 85.2857 29.6428 82.9286 29.6428C80.6714 29.6428 78.7571 28.4999 78.7571 25.9428C78.7571 21.9571 83.8143 20.2142 87.9857 19.3285V17.0428C87.9857 14.8714 87.1 13.8714 84.4429 13.8714C82.7927 13.886 81.1616 14.2258 79.6429 14.8714L79.5 14.6142C81.2571 12.4285 84.1429 10.5142 88.1714 10.5142C92.1572 10.5142 93.9286 12.4285 93.9286 15.3571V24.8428C93.9286 25.7285 94.3286 26.4999 95.5143 26.4999C96.0151 26.4979 96.5034 26.3435 96.9143 26.0571L96.9857 26.1999C96.4714 27.4142 95.1714 29.5999 92.0429 29.5999C89.7857 29.5999 88.4286 28.4142 88.1 26.7571ZM87.9857 26.0571V20.1142C85.3714 20.8142 83.9571 22.2857 83.9571 24.0285C83.9571 25.4714 84.8 26.4285 86.4286 26.4285C86.9712 26.4433 87.5082 26.3152 87.9857 26.0571Z" fill="#2F2C26"/>
<path d="M122.871 19.9714V0.0285645H102.886C102.886 11.0429 111.843 20 122.857 20H102.886V39.9714C113.914 39.9714 122.871 31.0286 122.871 20H142.857V0.0285645C131.829 0.0285645 122.886 8.97142 122.871 19.9714Z" fill="#EE3C15"/>
</svg>
